<svg version="1.1" id="Layer_1" xmlns="http://www.w3.org/2000/svg" xmlns:xlink="http://www.w3.org/1999/xlink" x="0px" y="0px"
	 viewBox="0 0 56.69 56.69" style="enable-background:new 0 0 56.69 56.69;" xml:space="preserve">
<style type="text/css">
	.st0{fill:url(#SVGID_1_);}
	.st1{fill:url(#SVGID_2_);}
	.st2{fill:#1A1E1E;}
	.st3{fill:#6EAFDF;}
	.st4{fill:#59A1D6;}
	.st5{fill:#5D5E5E;}
	.st6{fill:#73BD55;}
	.st7{fill:#F7F7F7;}
	.st8{fill:#08120A;}
	.st9{fill:#93603E;}
	.st10{fill:#2DAA4A;}
	.st11{fill:#45B455;}
	.st12{fill:#835535;}
	.st13{fill:#0D0E11;}
	.st14{fill:#8C9BA7;}
	.st15{fill:#9FACBA;}
	.st16{fill:#BEC4E3;}
	.st17{fill:#D5D9ED;}
</style>
<g>
	<path class="st8" d="M42.73,42.03c0.5,0.13,0.66,0.47,0.64,0.95c-0.02,0.4,0.02,0.8-0.01,1.19c-0.03,0.48,0.01,0.83,0.65,0.75
		c0.42-0.05,0.73,0.2,0.7,0.65c-0.03,0.38-0.3,0.59-0.71,0.58c-0.2,0-0.4,0-0.6,0c-9.19,0-18.38,0-27.57,0
		c-0.25,0-0.51,0.01-0.76-0.02c-0.33-0.05-0.48-0.27-0.49-0.6c0-0.32,0.14-0.62,0.47-0.59c0.8,0.08,0.75-0.4,0.74-0.94
		c-0.02-1.95-0.01-3.91-0.01-5.94c-1.75,0.4-3.42,0.79-5.1,1.15c-0.49,0.11-1.01,0.19-1.51,0.18c-1.15-0.03-1.66-0.85-1.24-1.92
		c0.23-0.59,0.6-1.09,0.97-1.58c0.55-0.72,1.09-1.45,1.64-2.17c0.02-0.02,0.02-0.05,0.03-0.08c-1.42-0.54-1.69-1.22-0.87-2.47
		c0.73-1.11,1.58-2.14,2.37-3.21c0.12-0.15,0.29-0.28,0.29-0.55c-0.17-0.04-0.36-0.07-0.55-0.11c-0.88-0.21-1.17-0.75-0.82-1.57
		c0.42-0.97,1.18-1.72,1.79-2.57c0.13-0.18,0.26-0.36,0.4-0.55c-1.21-0.46-1.46-1.06-0.72-2.08c1.33-1.83,2.69-3.65,4.11-5.41
		c0.92-1.15,2.08-1.09,2.99,0.09c1.33,1.72,2.64,3.47,3.96,5.21c0.33-0.22,0.52-0.53,0.77-0.95c-0.59-0.01-1.12-0.11-1.32-0.68
		c-0.22-0.61,0.1-1.11,0.44-1.57c1.48-1.97,2.94-3.95,4.47-5.89c1.03-1.3,2.33-1.27,3.34,0.03c1.44,1.86,2.85,3.74,4.27,5.61
		c0.12,0.16,0.23,0.32,0.33,0.49c0.71,1.19,0.44,1.82-0.98,2.11c0.19,0.29,0.37,0.56,0.62,0.93c0.94-1.23,1.84-2.4,2.74-3.58
		c0.46-0.61,0.9-1.24,1.39-1.82c0.91-1.06,2.02-1.09,2.89,0c1.43,1.79,2.79,3.64,4.16,5.48c0.62,0.83,0.58,1.86-0.78,2
		c0.48,0.64,0.93,1.25,1.38,1.85c0.18,0.25,0.37,0.5,0.54,0.76c0.89,1.38,0.53,2.11-1.18,2.29c0.75,0.99,1.48,1.96,2.2,2.93
		c0.24,0.32,0.47,0.64,0.66,0.99c0.7,1.26,0.43,1.93-0.97,2.3c0.62,0.83,1.23,1.64,1.83,2.46c0.35,0.48,0.68,0.97,0.88,1.54
		c0.36,1.06-0.15,1.83-1.27,1.8c-1.25-0.03-2.43-0.5-3.64-0.74c-0.77-0.15-1.55-0.34-2.3-0.56c-0.55-0.16-0.67,0-0.66,0.54
		c0.01,0.6,0.29,1.36-0.62,1.64c-0.53-0.11-0.73-0.45-0.71-0.97c0.01-0.39-0.01-0.78,0-1.17c0.01-0.33-0.11-0.53-0.45-0.6
		c-0.37-0.07-0.6,0.04-0.61,0.45c-0.73,0.35-0.88,0.95-0.85,1.72c0.06,1.46,0.04,2.93,0.01,4.4c-0.01,0.7,0.24,0.88,0.86,0.58
		c0.8,0.17,1.16-0.12,1.04-0.96c-0.04-0.28,0-0.56-0.01-0.84C41.99,42.48,42.18,42.12,42.73,42.03z M18.18,37.93
		c-0.08-0.45-0.41-0.31-0.67-0.27c-0.37,0.06-0.38,0.36-0.38,0.66c0,1.84,0.04,3.68-0.02,5.52c-0.03,0.85,0.27,1.13,1.06,1.01
		c0.62,0.19,0.87,0,0.85-0.68c-0.04-1.5-0.07-3.01,0.01-4.51C19.09,38.87,18.88,38.31,18.18,37.93z M29.58,36.47
		c-0.98-0.04-1.26,0.41-1.22,1.38c0.08,1.92,0.02,3.85,0.02,5.78c0,1.19,0,1.19,1.18,1.17c1.19,0.06,1.19,0.06,1.19-1.12
		c0-0.25,0.01-0.51,0-0.76c-0.02-0.5,0.18-0.81,0.7-0.88c0.44,0.1,0.57,0.42,0.57,0.82c0,0.48,0.02,0.96,0,1.45
		c-0.02,0.41,0.08,0.62,0.56,0.61c1.9-0.02,3.8-0.02,5.7,0c0.35,0,0.52-0.08,0.51-0.47c-0.01-1.81-0.01-3.63,0-5.44
		c0-0.29-0.06-0.45-0.4-0.52c-1.93-0.43-3.85-0.88-5.77-1.35C32.11,37,32,37.2,32.03,37.67c0.03,0.59,0,1.19,0.01,1.79
		c0,0.44-0.12,0.78-0.58,0.92c-0.51-0.08-0.71-0.39-0.69-0.88c0.01-0.53-0.06-1.08,0.02-1.6C30.91,36.93,30.54,36.47,29.58,36.47z
		 M36.97,21.03c0.58-0.12,1.16-0.25,1.74-0.36c1.2-0.22,2.35-0.72,3.64-0.26c0.95,0.34,1.98,0.47,3.17,0.74
		c-1.39-1.82-2.65-3.48-3.91-5.15c-0.34-0.45-0.69-0.47-1.03-0.02c-1.24,1.64-2.55,3.23-3.69,4.95c-0.04,0.03-0.12,0.09-0.12,0.1
		C36.83,21.13,36.9,21.1,36.97,21.03z M46.52,25.96c0.06,0.07,0.13,0.1,0.2,0.01c0,0-0.07-0.06-0.11-0.1
		c-0.72-1.29-1.73-2.37-2.6-3.55c-0.1-0.14-0.32-0.22-0.5-0.28c-1.59-0.57-3.19-0.62-4.78-0.02c-0.71,0.27-1.23,0.73-1.16,1.56
		c0.08,0.89-0.32,1.32-1.16,1.46c-0.21,0.03-0.52-0.01-0.45,0.34c0.06,0.29,0.26,0.49,0.63,0.39c0.44-0.11,0.89-0.15,1.32-0.29
		c1.98-0.65,3.95-0.78,5.96-0.09C44.73,25.66,45.64,25.77,46.52,25.96z M23.1,23.5c0.61,0.09,1.18-0.09,1.74-0.26
		c2.85-0.87,5.69-1.3,8.6-0.2c0.81,0.31,1.7,0.42,2.72,0.67c-0.57-1.08-1.25-1.84-1.85-2.64c-1.58-2.1-1.58-2.13-4.14-2.61
		c-1.37-0.26-2.94-0.02-3.87,0.82c-1.28,1.16-2.35,2.65-3.19,4.24c-0.02,0.01-0.04,0.01-0.06,0.02c-0.01,0.01,0,0.03-0.01,0.04
		C23.07,23.55,23.08,23.52,23.1,23.5z M39.7,37.3c0.02-0.3-0.1-0.5-0.22-0.69c-1.08-1.66-2.37-3.18-3.54-4.78
		c-0.19-0.26-0.45-0.3-0.73-0.37c-1.76-0.41-3.52-0.83-5.28-1.25c-0.25-0.06-0.5-0.07-0.75-0.01c-1.7,0.4-3.41,0.79-5.11,1.21
		c-0.31,0.08-0.66,0.11-0.9,0.42c-1.14,1.55-2.31,3.09-3.45,4.63c-0.14,0.19-0.35,0.44-0.17,0.69c0.15,0.21,0.42,0.07,0.64,0.04
		c2.54-0.41,5.01-1.14,7.53-1.67c0.85-0.18,1.66-0.5,2.57-0.27c1.81,0.46,3.63,0.87,5.45,1.27C37.04,36.81,38.33,37.24,39.7,37.3z
		 M37.98,30.73c-0.01-0.46-0.23-0.69-0.41-0.94c-0.87-1.18-1.85-2.3-2.62-3.55c-0.88-1.44-2.08-2.22-3.73-2.37
		c-0.67-0.06-1.29-0.47-1.99-0.31c-1.02,0.22-2.03,0.5-3.05,0.71c-0.45,0.09-0.75,0.32-1.02,0.67c-1.1,1.47-2.23,2.93-3.33,4.41
		c-0.28,0.38-0.63,0.73-0.73,1.29c1.77-0.23,3.44-0.78,5.15-1.09c1.42-0.26,2.77-1.01,4.3-0.57c1.03,0.3,2.08,0.52,3.12,0.76
		C35.1,30.08,36.53,30.4,37.98,30.73z M27.1,40.94c0-1.1-0.02-2.21,0.01-3.31c0.02-0.51-0.13-0.63-0.62-0.51
		c-1.89,0.46-3.78,0.91-5.68,1.31c-0.41,0.09-0.47,0.27-0.47,0.62c0.01,1.76,0.02,3.51,0,5.27c0,0.42,0.1,0.6,0.56,0.6
		c1.87-0.02,3.74-0.03,5.61,0c0.52,0.01,0.61-0.22,0.6-0.66C27.08,43.15,27.1,42.05,27.1,40.94z M50.05,38.18
		c-0.63-1.32-1.61-2.24-2.31-3.36c-0.73-1.17-1.65-1.91-3.08-2.04c-0.86-0.08-1.72-0.33-2.55-0.6c-1.38-0.46-2.55,0.26-3.9,0.41
		c0.87,1.22,1.64,2.3,2.4,3.38c0.13,0.18,0.27,0.25,0.47,0.29c1.71,0.37,3.41,0.77,5.12,1.13C47.45,37.65,48.65,38.08,50.05,38.18z
		 M9.15,38.06c0.36,0.1,0.65,0.04,0.95-0.02c2.64-0.6,5.28-1.19,7.92-1.77c0.18-0.04,0.31-0.09,0.4-0.25
		c0.59-1.04,1.36-1.94,2.09-2.88c0.35-0.46,0.17-0.52-0.29-0.68c-1.54-0.55-3-0.23-4.55,0c-2.24,0.34-3.87,1.29-4.97,3.26
		C10.25,36.51,9.52,37.14,9.15,38.06z M47.86,32.19c0.07-0.01,0.3,0.01,0.38-0.09c0.15-0.18-0.04-0.37-0.15-0.52
		c-1.1-1.47-2.22-2.93-3.32-4.4c-0.19-0.25-0.44-0.33-0.71-0.43c-1.98-0.67-3.94-0.72-5.93-0.02c-0.8,0.28-0.88,0.4-0.38,1.08
		c0.66,0.88,1.43,1.7,1.65,2.82c0.09,0.44,0.31,0.29,0.54,0.21c0.84-0.29,1.65-0.14,2.49,0.07C44.19,31.38,45.99,31.76,47.86,32.19z
		 M10.6,32.15c0.26,0.02,0.38,0.06,0.48,0.04c1.16-0.25,2.31-0.55,3.47-0.75c1.61-0.29,3.17-1.16,4.87-0.5
		c0.15,0.06,0.28,0.04,0.3-0.16c0.15-1.33,1.08-2.21,1.81-3.2c0.26-0.35,0.23-0.62-0.17-0.69c-1.47-0.25-2.83-0.92-4.45-0.6
		c-1.74,0.34-2.97,1.1-3.89,2.59C12.33,30,11.45,31.01,10.6,32.15z M24.5,17.96c0.02,0.08,0.05,0.17,0.07,0.25
		c3.3-1.37,6.6-1.4,9.93,0.01c-0.02-0.61-0.3-0.84-0.5-1.1c-1-1.34-2.02-2.66-3.02-3.99c-1.41-1.86-1.41-1.86-2.81-0.02
		C26.94,14.73,25.72,16.35,24.5,17.96z M12.43,25.84c0.29,0.03,0.4,0.07,0.5,0.05c0.2-0.02,0.39-0.07,0.58-0.11
		c2.46-0.58,4.89-1.44,7.44-0.39c0.46,0.19,1,0.21,1.48,0.37c0.41,0.14,0.63-0.08,0.72-0.38c0.1-0.37-0.23-0.45-0.52-0.48
		c-0.8-0.1-1.09-0.56-1.06-1.35c0.03-0.8-0.44-1.32-1.18-1.54c-0.62-0.19-1.26-0.31-1.9-0.42c-1.16-0.2-2.43,0.04-3.22,0.69
		C14.15,23.19,13.41,24.57,12.43,25.84z M22.29,21.25c0.03-0.08,0.07-0.16,0.1-0.25c-1.27-1.66-2.54-3.32-3.81-4.98
		c-0.28-0.37-0.62-0.56-0.96-0.12c-1.31,1.69-2.59,3.4-3.89,5.1c0.02,0.07,0.05,0.14,0.07,0.21C16.64,20.03,19.47,20,22.29,21.25z"
		/>
	<path class="st9" d="M42.73,42.03c-0.55,0.1-0.73,0.46-0.71,0.97c0.01,0.28-0.03,0.57,0.01,0.84c0.12,0.84-0.24,1.13-1.04,0.96
		c-0.01-2.23-0.02-4.47-0.03-6.7c0.01-0.41,0.24-0.52,0.61-0.45c0.33,0.06,0.46,0.27,0.45,0.6c-0.01,0.39,0.01,0.78,0,1.17
		c-0.02,0.52,0.18,0.86,0.71,0.97C42.72,40.93,42.72,41.48,42.73,42.03z"/>
	<path class="st10" d="M39.7,37.3c-1.37-0.06-2.66-0.49-3.97-0.78c-1.82-0.4-3.64-0.81-5.45-1.27c-0.91-0.23-1.73,0.09-2.57,0.27
		c-2.51,0.54-4.99,1.26-7.53,1.67c-0.22,0.04-0.48,0.17-0.64-0.04c-0.18-0.24,0.03-0.49,0.17-0.69c1.15-1.55,2.31-3.08,3.45-4.63
		c0.23-0.32,0.58-0.35,0.9-0.42c1.7-0.42,3.41-0.81,5.11-1.21c0.26-0.06,0.5-0.05,0.75,0.01c1.76,0.42,3.52,0.84,5.28,1.25
		c0.28,0.06,0.54,0.11,0.73,0.37c1.17,1.6,2.46,3.12,3.54,4.78C39.6,36.8,39.71,37,39.7,37.3z"/>
	<path class="st11" d="M37.98,30.73c-1.46-0.33-2.88-0.65-4.3-0.98c-1.04-0.24-2.1-0.46-3.12-0.76c-1.52-0.44-2.88,0.31-4.3,0.57
		c-1.71,0.31-3.38,0.86-5.15,1.09c0.1-0.56,0.45-0.92,0.73-1.29c1.1-1.48,2.22-2.93,3.33-4.41c0.27-0.36,0.57-0.58,1.02-0.67
		c1.02-0.21,2.03-0.49,3.05-0.71c0.69-0.15,1.32,0.25,1.99,0.31c1.65,0.15,2.85,0.93,3.73,2.37c0.76,1.25,1.74,2.37,2.62,3.55
		C37.75,30.04,37.98,30.27,37.98,30.73z"/>
	<path class="st10" d="M23.11,23.51c0.84-1.59,1.91-3.08,3.19-4.24c0.93-0.84,2.49-1.08,3.87-0.82c2.55,0.47,2.56,0.51,4.14,2.61
		c0.61,0.8,1.29,1.56,1.85,2.64c-1.02-0.24-1.91-0.36-2.72-0.67c-2.91-1.1-5.75-0.67-8.6,0.2c-0.56,0.17-1.14,0.35-1.74,0.26
		L23.11,23.51z"/>
	<path class="st10" d="M50.05,38.18c-1.4-0.11-2.6-0.53-3.83-0.79c-1.71-0.36-3.41-0.76-5.12-1.13c-0.21-0.05-0.35-0.11-0.47-0.29
		c-0.76-1.09-1.54-2.17-2.4-3.38c1.35-0.15,2.52-0.86,3.9-0.41c0.83,0.27,1.69,0.52,2.55,0.6c1.43,0.13,2.35,0.87,3.08,2.04
		C48.44,35.94,49.42,36.87,50.05,38.18z"/>
	<path class="st10" d="M9.15,38.06c0.36-0.92,1.1-1.54,1.54-2.34c1.1-1.96,2.73-2.92,4.97-3.26c1.55-0.24,3.02-0.55,4.55,0
		c0.46,0.16,0.65,0.22,0.29,0.68c-0.72,0.94-1.5,1.84-2.09,2.88c-0.09,0.16-0.22,0.21-0.4,0.25c-2.64,0.58-5.28,1.17-7.92,1.77
		C9.8,38.1,9.51,38.16,9.15,38.06z"/>
	<path class="st11" d="M47.86,32.19c-1.88-0.43-3.67-0.82-5.44-1.27c-0.84-0.21-1.65-0.36-2.49-0.07c-0.23,0.08-0.45,0.23-0.54-0.21
		c-0.22-1.12-0.99-1.94-1.65-2.82c-0.5-0.67-0.42-0.8,0.38-1.08c1.99-0.7,3.96-0.65,5.93,0.02c0.27,0.09,0.52,0.18,0.71,0.43
		c1.1,1.47,2.21,2.93,3.32,4.4c0.11,0.15,0.3,0.34,0.15,0.52C48.16,32.2,47.93,32.18,47.86,32.19z"/>
	<path class="st11" d="M10.6,32.15c0.86-1.14,1.73-2.15,2.42-3.27c0.92-1.49,2.15-2.25,3.89-2.59c1.62-0.32,2.98,0.35,4.45,0.6
		c0.4,0.07,0.43,0.34,0.17,0.69c-0.73,0.99-1.66,1.88-1.81,3.2c-0.02,0.2-0.16,0.21-0.3,0.16c-1.71-0.67-3.26,0.21-4.87,0.5
		c-1.16,0.21-2.31,0.5-3.47,0.75C10.97,32.21,10.86,32.17,10.6,32.15z"/>
	<path class="st11" d="M24.5,17.96c1.22-1.62,2.44-3.24,3.67-4.85c1.4-1.84,1.4-1.84,2.81,0.02c1.01,1.33,2.02,2.66,3.02,3.99
		c0.2,0.26,0.47,0.49,0.5,1.1c-3.33-1.41-6.63-1.38-9.93-0.01C24.55,18.13,24.52,18.05,24.5,17.96z"/>
	<path class="st10" d="M12.43,25.84c0.97-1.27,1.72-2.64,2.84-3.56c0.79-0.64,2.05-0.89,3.22-0.69c0.64,0.11,1.28,0.23,1.9,0.42
		c0.74,0.22,1.21,0.74,1.18,1.54c-0.03,0.79,0.26,1.25,1.06,1.35c0.28,0.03,0.62,0.11,0.52,0.48c-0.08,0.3-0.3,0.51-0.72,0.38
		c-0.48-0.16-1.01-0.18-1.48-0.37c-2.55-1.05-4.99-0.19-7.44,0.39c-0.19,0.05-0.38,0.09-0.58,0.11
		C12.83,25.91,12.72,25.87,12.43,25.84z"/>
	<path class="st10" d="M46.52,25.96c-0.88-0.19-1.79-0.3-2.64-0.59c-2.01-0.68-3.98-0.55-5.96,0.09c-0.43,0.14-0.89,0.18-1.32,0.29
		c-0.37,0.1-0.56-0.1-0.63-0.39c-0.07-0.34,0.24-0.3,0.45-0.34c0.83-0.13,1.23-0.57,1.16-1.46c-0.07-0.83,0.45-1.29,1.16-1.56
		c1.59-0.6,3.19-0.54,4.78,0.02c0.18,0.06,0.4,0.14,0.5,0.28c0.87,1.18,1.88,2.26,2.6,3.55C46.58,25.9,46.55,25.93,46.52,25.96z"/>
	<path class="st11" d="M22.29,21.25c-2.83-1.25-5.66-1.22-8.49-0.04c-0.02-0.07-0.05-0.14-0.07-0.21c1.29-1.7,2.58-3.41,3.89-5.1
		c0.34-0.44,0.68-0.25,0.96,0.12c1.27,1.66,2.54,3.32,3.81,4.98C22.36,21.09,22.32,21.17,22.29,21.25z"/>
	<path class="st11" d="M36.88,20.94c1.14-1.72,2.45-3.31,3.69-4.95c0.34-0.45,0.69-0.43,1.03,0.02c1.26,1.66,2.53,3.32,3.91,5.15
		c-1.18-0.27-2.21-0.4-3.17-0.74c-1.28-0.46-2.44,0.04-3.64,0.26c-0.58,0.11-1.16,0.24-1.74,0.36C36.94,21,36.91,20.97,36.88,20.94z
		"/>
	<path class="st9" d="M31.46,40.37c0,0.55,0,1.11,0,1.66c-0.52,0.07-0.72,0.38-0.7,0.88c0.01,0.25,0,0.51,0,0.76
		c0,1.18,0,1.18-1.19,1.12c0-2.78,0.01-5.55,0.01-8.33c0.96,0,1.33,0.46,1.19,1.42c-0.07,0.52,0,1.07-0.02,1.6
		C30.75,39.99,30.95,40.3,31.46,40.37z"/>
	<path class="st12" d="M29.58,36.47c0,2.78-0.01,5.55-0.01,8.33c-1.18,0.02-1.18,0.02-1.18-1.17c0-1.93,0.06-3.86-0.02-5.78
		C28.32,36.88,28.61,36.43,29.58,36.47z"/>
	<path class="st12" d="M18.18,44.85c-0.79,0.12-1.09-0.16-1.06-1.01c0.06-1.84,0.02-3.68,0.02-5.52c0-0.3,0.01-0.6,0.38-0.66
		c0.26-0.04,0.59-0.18,0.67,0.27C18.18,40.24,18.18,42.55,18.18,44.85z"/>
	<path class="st9" d="M18.18,44.85c0-2.31,0-4.61,0-6.92c0.7,0.37,0.9,0.93,0.86,1.73c-0.08,1.5-0.05,3.01-0.01,4.51
		C19.05,44.86,18.81,45.05,18.18,44.85z"/>
	<path class="st12" d="M40.96,38.1c0.01,2.23,0.02,4.47,0.03,6.7c-0.62,0.3-0.87,0.12-0.86-0.58c0.03-1.47,0.05-2.93-0.01-4.4
		C40.08,39.05,40.22,38.46,40.96,38.1z"/>
	<path class="st11" d="M36.97,21.03c-0.07,0.07-0.14,0.1-0.21,0c0,0,0.07-0.06,0.12-0.1C36.91,20.97,36.94,21,36.97,21.03z"/>
	<path class="st10" d="M23.1,23.5c-0.02,0.03-0.03,0.05-0.05,0.08c0-0.01,0-0.04,0.01-0.04c0.02-0.01,0.04-0.02,0.06-0.03
		C23.11,23.51,23.1,23.5,23.1,23.5z"/>
	<path class="st10" d="M46.61,25.87c0.04,0.03,0.11,0.09,0.11,0.1c-0.07,0.09-0.13,0.06-0.2-0.01
		C46.55,25.93,46.58,25.9,46.61,25.87z"/>
</g>
</svg>
