<svg version="1.1" id="Layer_1" xmlns="http://www.w3.org/2000/svg" xmlns:xlink="http://www.w3.org/1999/xlink" x="0px" y="0px"
	 viewBox="0 0 56.69 56.69" style="enable-background:new 0 0 56.69 56.69;" xml:space="preserve">
<style type="text/css">
	.st0{fill:url(#SVGID_1_);}
	.st1{fill:url(#SVGID_2_);}
	.st2{fill:#1A1E1E;}
	.st3{fill:#6EAFDF;}
	.st4{fill:#59A1D6;}
	.st5{fill:#5D5E5E;}
	.st6{fill:#73BD55;}
	.st7{fill:#F7F7F7;}
	.st8{fill:#08120A;}
	.st9{fill:#93603E;}
	.st10{fill:#2DAA4A;}
	.st11{fill:#45B455;}
	.st12{fill:#835535;}
	.st13{fill:#0D0E11;}
	.st14{fill:#8C9BA7;}
	.st15{fill:#9FACBA;}
	.st16{fill:#BEC4E3;}
	.st17{fill:#D5D9ED;}
</style>
<g>
	<path class="st2" d="M23.21,18.01c0.66-0.56,1.28-1.16,2.12-1.45c0.38-0.13,0.79-0.25,1.16,0.05c0.4,0.33,0.23,0.77,0.11,1.13
		c-0.43,1.27-0.87,2.55-1.24,3.84c-0.19,0.66-0.06,0.84,0.68,0.84c5.48,0,10.89,0.49,16.08,2.4c2.3,0.85,4.45,1.97,6.05,3.91
		c1.33,1.61,2.02,3.44,1.51,5.56c-0.26,1.08-0.93,1.95-1.75,2.67c-0.37,0.32-0.39,0.52-0.11,0.91c0.59,0.83,0.86,1.79,0.89,2.81
		c0.03,1.23-0.77,2.19-1.99,2.21c-3.87,0.05-7.74,0.03-11.6,0.03c-0.47,0-0.98-0.12-1.21-0.55c-0.35-0.64-0.85-0.48-1.38-0.43
		c-5.61,0.48-11.18,0.35-16.63-1.22c-2.06-0.59-4.02-1.41-5.69-2.8c-0.23-0.19-0.45-0.39-0.65-0.61c-1.83-1.98-1.7-3.92,0.38-5.64
		c1.03-0.85,2.24-1.39,3.34-2.13c0.94-0.63,0.93-0.77-0.07-1.32c-1.99-1.09-2.03-2.26-0.09-3.46c0.43-0.27,0.89-0.52,1.38-0.66
		c0.63-0.18,0.67-0.53,0.55-1.09c-0.34-1.61-0.82-3.18-1.31-4.74c-0.15-0.46-0.49-1,0.03-1.42c0.52-0.41,1.04-0.07,1.51,0.17
		c1.03,0.52,1.8,1.36,2.55,2.32c0.39-1.02,0.69-1.99,1.15-2.9c0.59-1.16,1.27-2.26,2.19-3.19c0.3-0.31,0.63-0.59,0.97-0.85
		c0.43-0.33,0.94-0.69,1.48-0.4c0.6,0.33,0.36,0.94,0.27,1.47c-0.24,1.38-0.49,2.76-0.73,4.14c-0.03,0.15-0.14,0.32,0.09,0.41
		c-0.04-0.02-0.07-0.03-0.11-0.05c0,0.04,0,0.07-0.01,0.11C23.14,18.07,23.17,18.04,23.21,18.01z M37.48,24.52
		c-1.56-0.47-3.17-0.64-4.77-0.82c-3.45-0.39-6.9-0.47-10.36-0.17c-2.55,0.22-5.09,0.55-7.51,1.46c-0.66,0.25-1.29,0.55-1.81,1.03
		c-0.46,0.41-0.52,0.8,0.11,1.12c0.38,0.19,0.77,0.4,1.12,0.64c0.85,0.58,0.93,1.32,0.22,2.03c-0.36,0.37-0.81,0.62-1.25,0.89
		c-1.06,0.65-2.19,1.18-3.09,2.06c-1.17,1.14-1.23,2.33-0.2,3.58c0.77,0.93,1.74,1.61,2.82,2.14c3.62,1.78,7.5,2.47,11.5,2.6
		c2.99,0.33,5.98,0.11,8.96-0.17c0.34-0.03,0.31-0.31,0.37-0.53c0.44-1.6,1.5-2.71,3.09-2.96c1.11-0.17,1.95-0.6,2.83-1.23
		c2.04-1.46,4.7-1.35,6.82,0.11c0.2,0.13,0.36,0.51,0.73,0.17c0.69-0.65,1.38-1.33,1.63-2.27c0.54-2.03-0.19-3.75-1.57-5.16
		C44.49,26.33,41.05,25.27,37.48,24.52z M44.47,41.89C44.47,41.89,44.47,41.89,44.47,41.89c0.7,0,1.41,0.02,2.11-0.01
		c0.79-0.03,1.18-0.48,1.13-1.26c-0.02-0.29-0.08-0.59-0.16-0.87c-0.46-1.7-1.55-2.84-3.21-3.35c-1.63-0.5-3.2-0.28-4.59,0.8
		c-0.31,0.24-0.31,0.35,0.03,0.56c1.31,0.83,2.18,1.93,2.1,3.57c-0.02,0.43,0.15,0.58,0.56,0.56C43.12,41.88,43.8,41.89,44.47,41.89
		z M22.96,13.12c-0.35-0.01-0.53,0.21-0.71,0.39c-2.58,2.46-3.57,5.64-4.08,9.04c-0.08,0.5,0.21,0.54,0.57,0.47
		c0.85-0.16,1.7-0.3,2.57-0.32c0.46-0.01,0.58-0.23,0.58-0.67c-0.01-0.97,0-1.94,0.1-2.92C22.18,17.09,22.63,15.13,22.96,13.12z
		 M36.24,42.02c1.21-0.1,2.42-0.12,3.64-0.11c1.01,0.01,1.24-0.31,0.97-1.3c-0.35-1.26-1.2-2.04-2.46-2.3
		c-1.38-0.29-2.79,0.29-3.47,1.39c-0.35,0.57-0.7,1.24-0.38,1.89c0.32,0.64,1.05,0.4,1.62,0.44C36.19,42.02,36.21,42.02,36.24,42.02
		z M14.55,17.75c0.58,1.84,1.11,3.5,1.43,5.21c0.04,0.2-0.06,0.66,0.4,0.52c0.32-0.1,0.78-0.02,0.81-0.6
		c0.04-0.61,0.16-1.23,0.28-1.83c0.04-0.23,0-0.42-0.12-0.61C16.67,19.38,15.86,18.46,14.55,17.75z M25.64,17.5
		c-1.55,0.78-3.13,2.1-2.85,4.34c0.03,0.28-0.16,0.74,0.4,0.68c0.41-0.04,0.99,0.18,1.11-0.5C24.57,20.51,25.12,19.08,25.64,17.5z"
		/>
	<path class="st3" d="M24.26,41.07c-4-0.13-7.87-0.82-11.49-2.6c-1.08-0.53-2.05-1.21-2.82-2.14c-1.04-1.25-0.97-2.44,0.2-3.58
		c0.9-0.88,2.04-1.41,3.09-2.06c0.44-0.27,0.88-0.53,1.25-0.89c0.7-0.71,0.62-1.45-0.22-2.03c-0.36-0.24-0.74-0.45-1.12-0.64
		c-0.64-0.32-0.57-0.71-0.11-1.12c0.53-0.48,1.16-0.78,1.81-1.03c2.42-0.91,4.96-1.24,7.51-1.46c3.46-0.3,6.92-0.21,10.36,0.17
		c1.6,0.18,3.22,0.35,4.77,0.82c0.02,0.13,0,0.29,0.07,0.39c0.9,1.24,1.03,2.64,0.93,4.12c-0.04,0.55-0.23,0.67-0.73,0.67
		c-0.41-0.01-0.86-0.15-1.25,0.13c-0.31,0.29-0.31,0.58,0,0.87c0.2,0.2,0.45,0.13,0.69,0.14c0.85,0.03,0.9,0.09,0.56,0.88
		c-0.68,1.58-1.73,2.93-2.95,4.11c-1.62,1.56-3.51,2.76-5.57,3.67C27.64,40.2,26.05,40.95,24.26,41.07z M25.41,38.95
		c0.62-0.05,1.32-0.07,2.01-0.18c1.25-0.2,2.49-0.47,3.54-1.25c1.1-0.81,1.09-2.01,0.01-2.83c-0.48-0.36-1.01-0.61-1.58-0.79
		c-2.15-0.67-4.33-0.79-6.55-0.38c-1.23,0.23-2.44,0.51-3.37,1.41c-0.75,0.72-0.73,1.61-0.01,2.35c0.43,0.43,0.95,0.69,1.51,0.91
		C22.38,38.74,23.85,38.86,25.41,38.95z M25.88,27.4C25.88,27.4,25.88,27.4,25.88,27.4c0.38,0,0.76,0.01,1.13-0.01
		c0.3-0.02,0.54-0.19,0.54-0.49c0-0.31-0.23-0.46-0.55-0.46c-0.73,0-1.46,0.01-2.19,0c-0.33-0.01-0.56,0.16-0.57,0.44
		c-0.02,0.34,0.24,0.52,0.58,0.52C25.18,27.41,25.53,27.4,25.88,27.4z M34.7,27.73C34.7,27.73,34.7,27.73,34.7,27.73
		c0.38,0,0.76,0.02,1.13-0.01c0.29-0.02,0.53-0.16,0.52-0.5c-0.01-0.34-0.24-0.45-0.54-0.45c-0.73,0-1.45,0-2.18,0
		c-0.32,0-0.53,0.12-0.55,0.45c-0.01,0.38,0.23,0.51,0.57,0.52C34,27.73,34.35,27.73,34.7,27.73z M30.01,29.03c-0.4,0-0.81,0-1.21,0
		c-0.3,0-0.46,0.19-0.48,0.44c-0.02,0.27,0.17,0.48,0.44,0.49c0.81,0.02,1.62,0.03,2.42-0.01c0.25-0.01,0.47-0.21,0.45-0.49
		c-0.02-0.32-0.25-0.45-0.56-0.44C30.71,29.04,30.36,29.03,30.01,29.03z"/>
	<path class="st4" d="M36.51,29.83c0.39-0.28,0.84-0.14,1.25-0.13c0.5,0.01,0.69-0.12,0.73-0.67c0.1-1.48-0.03-2.88-0.93-4.12
		c-0.07-0.1-0.05-0.26-0.07-0.39c3.57,0.75,7.01,1.81,9.64,4.51c1.38,1.42,2.11,3.13,1.57,5.16c-0.25,0.95-0.93,1.62-1.63,2.27
		c-0.36,0.34-0.53-0.04-0.73-0.17c-2.12-1.46-4.78-1.57-6.82-0.11c-0.88,0.63-1.72,1.05-2.83,1.23c-1.59,0.25-2.65,1.36-3.09,2.96
		c-0.06,0.23-0.03,0.5-0.37,0.53c-2.98,0.28-5.97,0.5-8.96,0.17c1.79-0.13,3.38-0.88,4.98-1.58c2.06-0.91,3.95-2.11,5.57-3.67
		c1.22-1.18,2.27-2.53,2.95-4.11c0.34-0.79,0.28-0.85-0.56-0.88c-0.24-0.01-0.49,0.06-0.69-0.14c0.8,0.01,1.61,0.03,2.41,0.03
		c0.34,0,0.69-0.06,0.66-0.5c-0.02-0.38-0.35-0.42-0.66-0.42C38.12,29.81,37.31,29.82,36.51,29.83z"/>
	<path class="st5" d="M44.47,41.89c-0.68,0-1.35-0.02-2.03,0.01c-0.42,0.01-0.58-0.13-0.56-0.56c0.08-1.65-0.8-2.75-2.1-3.57
		c-0.34-0.21-0.34-0.32-0.03-0.56c1.39-1.09,2.96-1.3,4.59-0.8c1.66,0.51,2.75,1.65,3.21,3.35c0.08,0.28,0.14,0.58,0.16,0.87
		c0.05,0.78-0.34,1.23-1.13,1.26C45.88,41.91,45.17,41.89,44.47,41.89C44.47,41.89,44.47,41.89,44.47,41.89z"/>
	<path class="st6" d="M22.96,13.12c-0.33,2-0.78,3.97-0.98,5.98c-0.1,0.97-0.1,1.94-0.1,2.92c0,0.44-0.12,0.66-0.58,0.67
		c-0.87,0.02-1.72,0.17-2.57,0.32c-0.37,0.07-0.65,0.03-0.57-0.47c0.52-3.39,1.5-6.58,4.08-9.04
		C22.44,13.34,22.62,13.12,22.96,13.12z"/>
	<path class="st5" d="M36.24,42.02c-0.03,0-0.05,0-0.08,0c-0.58-0.04-1.3,0.2-1.62-0.44c-0.32-0.65,0.02-1.32,0.38-1.89
		c0.68-1.1,2.09-1.68,3.47-1.39c1.26,0.26,2.11,1.04,2.46,2.3c0.28,0.99,0.04,1.31-0.97,1.3C38.67,41.9,37.45,41.92,36.24,42.02z"/>
	<path class="st6" d="M14.55,17.75c1.3,0.72,2.12,1.63,2.8,2.69c0.12,0.19,0.17,0.37,0.12,0.61c-0.11,0.61-0.24,1.22-0.28,1.83
		c-0.03,0.58-0.49,0.5-0.81,0.6c-0.46,0.14-0.37-0.32-0.4-0.52C15.66,21.24,15.13,19.59,14.55,17.75z"/>
	<path class="st6" d="M25.64,17.5c-0.52,1.58-1.07,3.01-1.34,4.52c-0.12,0.68-0.69,0.46-1.11,0.5c-0.56,0.06-0.37-0.4-0.4-0.68
		C22.52,19.6,24.09,18.28,25.64,17.5z"/>
	<path class="st7" d="M23.21,18.01c-0.03,0.03-0.07,0.06-0.1,0.08c0-0.04,0-0.07,0.01-0.11c0.04,0.01,0.07,0.03,0.11,0.05
		C23.22,18.04,23.21,18.01,23.21,18.01z"/>
	<path class="st2" d="M25.41,38.95c-1.56-0.09-3.04-0.21-4.44-0.76c-0.56-0.22-1.08-0.48-1.51-0.91c-0.73-0.74-0.74-1.63,0.01-2.35
		c0.94-0.9,2.15-1.18,3.37-1.41c2.21-0.41,4.4-0.29,6.55,0.38c0.57,0.18,1.1,0.43,1.58,0.79c1.09,0.82,1.09,2.02-0.01,2.83
		c-1.05,0.78-2.29,1.05-3.54,1.25C26.74,38.88,26.03,38.9,25.41,38.95z M25.34,37.98c1.59-0.05,3.22-0.2,4.71-1
		c1.02-0.55,1-1.17,0.02-1.76c-0.09-0.06-0.19-0.11-0.29-0.15c-2.97-1.15-5.94-1.16-8.9,0.01c-0.46,0.18-1.02,0.45-1,1.04
		c0.02,0.55,0.54,0.78,0.98,0.98C22.26,37.76,23.75,37.95,25.34,37.98z"/>
	<path class="st2" d="M25.88,27.4c-0.35,0-0.7,0-1.05,0c-0.34-0.01-0.6-0.18-0.58-0.52c0.02-0.29,0.24-0.45,0.57-0.44
		c0.73,0.01,1.46,0.01,2.19,0c0.32,0,0.54,0.15,0.55,0.46c0,0.31-0.24,0.48-0.54,0.49C26.64,27.41,26.26,27.4,25.88,27.4
		C25.88,27.4,25.88,27.4,25.88,27.4z"/>
	<path class="st2" d="M34.7,27.73c-0.35,0-0.7,0-1.05,0c-0.34,0-0.59-0.14-0.57-0.52c0.01-0.33,0.23-0.45,0.55-0.45
		c0.73,0.01,1.45,0,2.18,0c0.31,0,0.54,0.12,0.54,0.45c0.01,0.34-0.23,0.48-0.52,0.5C35.45,27.74,35.07,27.72,34.7,27.73
		C34.7,27.73,34.7,27.73,34.7,27.73z"/>
	<path class="st2" d="M30.01,29.03c0.35,0,0.7,0,1.05,0c0.31-0.01,0.54,0.12,0.56,0.44c0.02,0.28-0.2,0.48-0.45,0.49
		c-0.81,0.03-1.62,0.03-2.42,0.01c-0.26-0.01-0.46-0.22-0.44-0.49c0.02-0.25,0.18-0.44,0.48-0.44C29.2,29.04,29.6,29.03,30.01,29.03
		z"/>
	<path class="st2" d="M36.51,29.83c0.8-0.01,1.61-0.02,2.41-0.03c0.31,0,0.64,0.04,0.66,0.42c0.03,0.44-0.32,0.5-0.66,0.5
		c-0.8,0-1.61-0.02-2.41-0.03C36.19,30.41,36.2,30.12,36.51,29.83z"/>
	<path class="st6" d="M25.34,37.98c-1.59-0.03-3.07-0.22-4.47-0.86c-0.44-0.2-0.96-0.44-0.98-0.98c-0.02-0.6,0.53-0.86,1-1.04
		c2.96-1.17,5.93-1.16,8.9-0.01c0.1,0.04,0.19,0.09,0.29,0.15c0.98,0.59,1,1.22-0.02,1.76C28.56,37.79,26.92,37.94,25.34,37.98z"/>
</g>
</svg>
