<svg version="1.1" id="Layer_1" xmlns="http://www.w3.org/2000/svg" xmlns:xlink="http://www.w3.org/1999/xlink" x="0px" y="0px"
	 viewBox="0 0 56.69 56.69" style="enable-background:new 0 0 56.69 56.69;" xml:space="preserve">
<style type="text/css">
	.st0{fill:url(#SVGID_1_);}
	.st1{fill:url(#SVGID_2_);}
	.st2{fill:#1A1E1E;}
	.st3{fill:#6EAFDF;}
	.st4{fill:#59A1D6;}
	.st5{fill:#5D5E5E;}
	.st6{fill:#73BD55;}
	.st7{fill:#F7F7F7;}
	.st8{fill:#08120A;}
	.st9{fill:#93603E;}
	.st10{fill:#2DAA4A;}
	.st11{fill:#45B455;}
	.st12{fill:#835535;}
	.st13{fill:#0D0E11;}
	.st14{fill:#8C9BA7;}
	.st15{fill:#9FACBA;}
	.st16{fill:#BEC4E3;}
	.st17{fill:#D5D9ED;}
</style>
<g>
	<path class="st13" d="M29.46,30.55c-0.02,0.67-0.03,1.35-0.05,2.02c-0.04,1.21-0.69,1.87-1.89,1.87c-4.07,0.01-8.14,0-12.21,0.01
		c-0.47,0-0.82-0.09-0.9-0.61c0.14-0.58,0.6-0.55,1.04-0.55c2.85,0,5.69,0.01,8.54,0c0.98,0,1.96,0.08,2.94-0.06
		c1.15,0.14,1.26,0.04,1.26-1.1c0-0.65,0.01-1.29,0-1.94c-0.01-1.19-0.22-1.39-1.41-1.33c-2.27,0-4.54,0-6.83,0
		c-0.02,0.26,0.25,0.47,0.37,0.75c0.15,0.35,0.06,0.6-0.25,0.79c-0.3,0.19-0.57,0.07-0.74-0.17c-0.23-0.31-0.4-0.67-0.6-0.99
		c-0.13-0.21-0.18-0.5-0.48-0.57c-2.07-0.5-3.92-1.56-5.89-2.34c-1.16-0.46-1.84-0.2-2.1,1.02c-0.36,1.69-0.61,3.4-0.91,5.11
		c-0.11,0.63,0.2,0.85,0.78,0.84c0.62-0.01,1.24,0.02,1.87-0.01c0.44-0.02,0.75,0.13,0.94,0.53c-0.13,0.45-0.39,0.67-0.9,0.64
		c-0.72-0.04-1.45,0-2.18-0.01c-1.14-0.02-1.9-0.87-1.72-1.99c0.28-1.79,0.57-3.57,0.94-5.34c0.26-1.23,1.07-2.04,2.32-2.34
		c3.14-0.74,6.28-1.47,9.42-2.19c0.48-0.11,0.8-0.24,0.79-0.86c-0.02-0.87,0.44-1.57,1.05-2.18c1.61-1.62,3.22-3.23,4.82-4.85
		c0.73-0.74,1.62-1.1,2.65-1.1c3.45,0,6.9-0.01,10.34,0c2.01,0.01,3.46,1.32,3.28,3.29c-0.19,2.16,0.41,3.76,2.23,4.94
		c0.43,0.28,0.78,0.69,1.14,1.06c0.55,0.56,0.84,1.23,0.84,2.02c0,1.5,0.01,3.01,0,4.51c-0.01,1.07-0.67,1.74-1.74,1.77
		c-0.95,0.02-1.9,0-2.93,0c0.28,0.6,0.54,1.13,0.48,1.75c-0.08,0.84-0.64,1.49-1.49,1.49c-2.7,0.03-5.39,0.01-8.09,0.02
		c-0.39,0-0.68-0.15-0.69-0.56c-0.01-0.41,0.27-0.58,0.67-0.58c0.54,0,1.21,0.18,1.6-0.06c0.43-0.27-0.11-0.98,0.12-1.48
		c0.24-0.53-0.04-0.59-0.49-0.58c-1.22,0.02-2.44,0-3.65,0.01c-0.46,0.01-0.75-0.14-0.82-0.62c0.11-0.49,0.47-0.55,0.89-0.54
		c1.45,0.01,2.9,0,4.36,0.01c0.43,0,0.8-0.07,1.17-0.3c0.77-0.47,1.57-0.58,2.44-0.18c0.46,0.21,0.92,0.48,1.46,0.48
		c1.58-0.01,3.16-0.01,4.75-0.02c0.27,0,0.53-0.03,0.68-0.28c0.54-0.91-0.11-2.58-1.16-2.92c-0.52-0.17-1.05-0.27-1.57-0.41
		c-0.43-0.11-0.69-0.35-0.62-0.83c0.28-0.43,0.68-0.41,1.1-0.29c0.76,0.22,1.56,0.33,2.28,0.7c0.23-1.21-0.06-2.15-1.06-2.9
		c-0.78-0.59-1.46-1.32-2.19-1.98c-0.55-0.5-0.84-1.09-0.81-1.84c0.02-0.75,0.01-1.5,0-2.25c-0.02-1.44-0.77-2.21-2.2-2.21
		c-3.47-0.01-6.94,0.01-10.41-0.01c-0.85,0-1.45,0.37-2.01,1.11c1.12,0,2.15,0.01,3.17,0c1.73-0.01,3.03,0.74,3.93,2.2
		c0.69,1.12,1.49,2.19,2.03,3.38c0.8,1.77,2.02,2.83,3.98,2.99c0.45,0.04,0.69,0.31,0.73,0.76c-0.23,0.43-0.55,0.57-1.03,0.39
		c-0.34-0.12-0.7-0.17-1.05-0.26c-0.83-0.21-0.83-0.21-0.72,0.62c0.06,0.45,0.12,0.97-0.49,1.04c-0.58,0.07-0.65-0.41-0.73-0.88
		c-0.1-0.63-0.02-1.3-0.37-1.88c-1.14-1.88-2.27-3.77-3.43-5.64c-0.62-0.99-1.52-1.52-2.72-1.51c-0.7,0.01-1.41,0.07-2.1-0.01
		c-1.75-0.2-3.12,0.38-4.22,1.76c-0.52,0.64-1.17,1.17-1.73,1.78c-0.42,0.46-0.57,1.04-0.51,1.66c0.04,0.47,0.55,0.38,0.79,0.62
		c0.22,0.22,0.48,0.4,0.69,0.62c1.24,1.25,2.45,2.54,3.73,3.75C28.93,28.18,29.48,29.22,29.46,30.55z M41.13,31.42
		c-0.02-0.1-0.07-0.11-0.16-0.09c-0.59-0.24-1.17-0.5-1.77-0.72c-0.67-0.25-1.4,0.03-1.87,0.69c-0.4,0.55-0.38,1.36,0.03,1.88
		c1.6,0.26,3.21,0.1,4.82,0.08c0.4-0.01,0.5-0.37,0.41-0.76c-0.17-0.78-0.8-0.92-1.43-1.06L41.13,31.42z M21.47,23.67
		c-2.61,0.58-5.22,1.16-7.84,1.75c0.98,0.58,1.98,0.99,2.96,1.43c0.73,0.33,1.46,0.66,2.28,0.68c2.17,0.03,4.35,0.04,6.52,0.06
		c0.35,0.06,0.7,0.09,1.17,0c-1.26-1.26-2.43-2.48-3.66-3.64C22.54,23.59,22.01,23.44,21.47,23.67z"/>
	<path class="st14" d="M29.46,30.55c0.02-1.33-0.53-2.37-1.49-3.28c-1.28-1.21-2.49-2.5-3.73-3.75c-0.22-0.22-0.47-0.4-0.69-0.62
		c-0.24-0.24-0.75-0.15-0.79-0.62c-0.06-0.62,0.09-1.2,0.51-1.66c0.56-0.61,1.22-1.14,1.73-1.78c1.1-1.37,2.47-1.96,4.22-1.76
		c0.69,0.08,1.4,0.02,2.1,0.01c1.19-0.01,2.1,0.52,2.72,1.51c1.16,1.87,2.29,3.76,3.43,5.64c0.35,0.58,0.26,1.25,0.37,1.88
		c0.08,0.47,0.15,0.95,0.73,0.88c0.6-0.07,0.55-0.59,0.49-1.04c-0.11-0.83-0.11-0.83,0.72-0.62c0.35,0.09,0.72,0.13,1.05,0.26
		c0.48,0.18,0.8,0.04,1.03-0.39c0.47,0.18,0.96,0.31,1.46,0.34c-0.07,0.48,0.19,0.72,0.62,0.83c0.53,0.14,1.06,0.24,1.57,0.41
		c1.04,0.33,1.7,2.01,1.16,2.92c-0.15,0.25-0.42,0.28-0.68,0.28c-1.58,0.01-3.16,0.01-4.75,0.02c-0.54,0-1-0.27-1.46-0.48
		c-0.87-0.4-1.67-0.29-2.44,0.18c-0.38,0.23-0.74,0.31-1.17,0.3c-1.45-0.01-2.9,0-4.36-0.01c-0.42,0-0.78,0.06-0.89,0.54
		C30.44,30.56,29.95,30.55,29.46,30.55z"/>
	<path class="st15" d="M12.94,33.8c-0.19-0.4-0.5-0.54-0.94-0.53c-0.62,0.03-1.24,0-1.87,0.01c-0.58,0.01-0.89-0.2-0.78-0.84
		c0.3-1.7,0.55-3.42,0.91-5.11c0.26-1.22,0.94-1.48,2.1-1.02c1.96,0.78,3.82,1.84,5.89,2.34c0.3,0.07,0.34,0.36,0.48,0.57
		c0.21,0.33,0.38,0.68,0.6,0.99c0.18,0.25,0.44,0.36,0.74,0.17c0.31-0.19,0.4-0.44,0.25-0.79c-0.12-0.28-0.39-0.49-0.37-0.75
		c2.29,0,4.56,0,6.83,0c0.31,1.45,0.11,2.91,0.15,4.36c-0.98,0.14-1.96,0.05-2.94,0.06c-2.85,0.01-5.69,0.01-8.54,0
		c-0.45,0-0.9-0.03-1.04,0.55C13.92,33.82,13.43,33.81,12.94,33.8z"/>
	<path class="st13" d="M36.2,42.21c1.48,0,2.83,0,4.17,0c0.46,0,0.96,0.01,0.95,0.62c-0.01,0.6-0.52,0.6-0.98,0.6
		c-4.53,0-9.07,0-13.6,0c-1.75,0-2.65-0.6-2.98-1.99c-0.32-1.37,0.47-3.16,1.78-3.72c1.87-0.81,3.75-1.59,5.67-2.24
		c2.24-0.76,5.3,1.59,5.39,4.05C36.63,40.39,36.67,41.27,36.2,42.21z M32.55,36.61c-0.49-0.21-0.95-0.07-1.42,0.11
		c-1.57,0.63-3.15,1.26-4.72,1.89c-1.04,0.42-1.56,1.25-1.5,2.36c0.04,0.76,0.46,1.22,1.21,1.22c2.56,0.01,5.12-0.01,7.67-0.02
		c0.7,0.12,1.21-0.1,1.48-0.79C36.06,39.36,34.71,37.01,32.55,36.61z"/>
	<path class="st13" d="M41.35,37.98c-0.03,0.36-0.24,0.6-0.59,0.59c-0.33,0-0.58-0.21-0.58-0.59c0.01-0.36,0.23-0.58,0.58-0.59
		C41.12,37.39,41.31,37.63,41.35,37.98z"/>
	<path class="st16" d="M43.32,25.57c-0.51-0.03-0.99-0.16-1.46-0.34c-0.04-0.45-0.28-0.73-0.73-0.76c-1.96-0.16-3.18-1.22-3.98-2.99
		c-0.54-1.19-1.34-2.26-2.03-3.38c-0.9-1.46-2.2-2.21-3.93-2.2c-1.02,0.01-2.05,0-3.17,0c0.56-0.74,1.16-1.11,2.01-1.11
		c3.47,0.02,6.94,0,10.41,0.01c1.43,0,2.19,0.77,2.2,2.21c0.01,0.75,0.02,1.5,0,2.25c-0.02,0.75,0.26,1.35,0.81,1.84
		c0.73,0.66,1.41,1.39,2.19,1.98c0.99,0.75,1.29,1.69,1.06,2.9c-0.72-0.37-1.52-0.48-2.28-0.7C44.01,25.16,43.6,25.14,43.32,25.57z"
		/>
	<path class="st17" d="M25.39,27.57c-2.17-0.02-4.35-0.03-6.52-0.06c-0.82-0.01-1.55-0.35-2.28-0.68c-0.98-0.44-1.97-0.85-2.96-1.43
		c2.61-0.58,5.22-1.16,7.84-1.75c0.21,0.02,0.38,0.13,0.53,0.28c1.05,1.06,2.1,2.11,3.16,3.16C25.3,27.24,25.4,27.38,25.39,27.57z"
		/>
	<path class="st16" d="M37.36,33.19c-0.42-0.52-0.43-1.33-0.03-1.88c0.47-0.65,1.19-0.93,1.87-0.69c0.6,0.22,1.18,0.48,1.77,0.72
		c0.05,0.03,0.1,0.06,0.16,0.09c0,0,0.03,0.02,0.03,0.02c-0.08,0.27,0.07,0.5,0.14,0.75c0.25,0.84,0.17,0.97-0.68,0.98
		C39.53,33.17,38.44,33.18,37.36,33.19z"/>
	<path class="st14" d="M26.94,33.22c-0.03-1.46,0.17-2.92-0.15-4.36c1.19-0.06,1.4,0.14,1.41,1.33c0.01,0.65,0,1.29,0,1.94
		C28.2,33.27,28.09,33.36,26.94,33.22z"/>
	<path class="st16" d="M25.39,27.57c0.01-0.2-0.1-0.34-0.23-0.47c-1.05-1.05-2.11-2.11-3.16-3.16c-0.15-0.15-0.32-0.26-0.53-0.28
		c0.54-0.23,1.07-0.07,1.43,0.27c1.23,1.15,2.4,2.37,3.66,3.64C26.09,27.66,25.74,27.63,25.39,27.57z"/>
	<path class="st15" d="M37.36,33.19c1.08-0.01,2.17-0.01,3.25-0.02c0.85-0.01,0.93-0.14,0.68-0.98c-0.07-0.24-0.22-0.47-0.14-0.75
		c0.63,0.15,1.26,0.29,1.43,1.06c0.08,0.39-0.01,0.75-0.41,0.76C40.57,33.29,38.96,33.45,37.36,33.19z"/>
	<path class="st15" d="M41.13,31.42c-0.05-0.03-0.1-0.06-0.16-0.09C41.05,31.31,41.11,31.33,41.13,31.42z"/>
	<path class="st17" d="M33.8,42.18c-2.56,0.01-5.12,0.03-7.67,0.02c-0.76,0-1.17-0.46-1.21-1.22c-0.06-1.11,0.46-1.94,1.5-2.36
		c1.57-0.63,3.15-1.25,4.72-1.89c0.46-0.19,0.93-0.32,1.42-0.11c0.76,0.89,1.55,1.72,1.65,3.02C34.26,40.55,34.06,41.35,33.8,42.18z
		"/>
	<path class="st16" d="M33.8,42.18c0.27-0.83,0.47-1.63,0.4-2.54c-0.1-1.3-0.89-2.13-1.65-3.02c2.16,0.39,3.51,2.75,2.73,4.77
		C35.01,42.08,34.5,42.3,33.8,42.18z"/>
</g>
</svg>
